<?xml version="1.0" encoding="UTF-8"?>
<svg width="24px" height="23px" viewBox="0 0 24 23" version="1.1" xmlns="http://www.w3.org/2000/svg" xmlns:xlink="http://www.w3.org/1999/xlink">
    <!-- Generator: Sketch 45.1 (43504) - http://www.bohemiancoding.com/sketch -->
    <title>indicator</title>
    <desc>Created with Sketch.</desc>
    <defs></defs>
    <g id="NEW-STYLE-GUIDE-V2" stroke="none" stroke-width="1" fill="none" fill-rule="evenodd">
        <g id="Pete-Style-Guide---Icons" transform="translate(-109.000000, -342.000000)" fill="#000000">
            <path d="M131.888931,361.933255 L121.996993,342.905484 C121.850912,342.626159 121.649181,342.405386 121.391167,342.243331 C121.133786,342.08111 120.854588,342 120.554046,342 C120.253505,342 119.974307,342.081276 119.716767,342.243331 C119.459228,342.405386 119.257339,342.626159 119.111416,342.905484 L109.219162,361.933255 C108.91862,362.501027 108.927158,363.068634 109.244932,363.636241 C109.391013,363.897321 109.590689,364.104658 109.843959,364.25759 C110.097388,364.410854 110.369946,364.487652 110.66195,364.487652 L130.4463,364.487652 C130.738621,364.487652 131.011021,364.410854 131.26445,364.25759 C131.517878,364.104658 131.717238,363.897321 131.863477,363.636241 C132.181251,363.068468 132.189788,362.501027 131.888931,361.933255 L131.888931,361.933255 Z M122.158601,361.271436 C122.158601,361.397497 122.117654,361.503322 122.036392,361.588911 C121.954814,361.6745 121.858217,361.717128 121.746443,361.717128 L119.27334,361.717128 C119.161724,361.717128 119.065127,361.6745 118.983549,361.588911 C118.901971,361.503156 118.861183,361.397497 118.861183,361.271436 L118.861183,358.703769 C118.861183,358.577708 118.901971,358.472049 118.983549,358.386294 C119.065127,358.300705 119.161566,358.258077 119.27334,358.258077 L121.746285,358.258077 C121.858059,358.258077 121.954656,358.300705 122.036234,358.386294 C122.117654,358.472049 122.158442,358.577708 122.158442,358.703769 L122.158442,361.271436 L122.158601,361.271436 Z M122.339147,355.998293 C122.330293,356.088361 122.285236,356.16267 122.203816,356.221223 C122.12208,356.279941 122.021373,356.308968 121.901061,356.308968 L119.518073,356.308968 C119.39792,356.308968 119.294841,356.279775 119.208995,356.221223 C119.12299,356.162505 119.080146,356.088361 119.080146,355.997962 L118.861183,349.822458 C118.861183,349.696231 118.904185,349.601685 118.990031,349.538654 C119.101647,349.43963 119.204726,349.390035 119.299268,349.390035 L122.132989,349.390035 C122.227531,349.390035 122.33061,349.439464 122.442226,349.538654 C122.528072,349.601685 122.570758,349.687274 122.570758,349.795421 L122.339147,355.998293 L122.339147,355.998293 Z" id="indicator"></path>
        </g>
    </g>
</svg>